<svg width="615" height="106" viewBox="0 0 615 106" fill="none" xmlns="http://www.w3.org/2000/svg">
<path d="M108 0L103.5 23.5H78L81.5 11.5H45L38.5 37H99.5L94.5 58L68 78H0L3.5 65.5H61.5L70 58V49.5H6.5L12.5 19.5L42.5 0H108Z" fill="#082159"/>
<path d="M144 0H117.5L115 11.5H141.5L144 0Z" fill="#082159"/>
<path d="M126.5 78L138.5 23.5H113L101 78H126.5Z" fill="#082159"/>
<path d="M138.5 78L155.5 0H243.5L259 18.5L246 78H219L232 21L224.5 11.5H179.5L165 78H138.5Z" fill="#082159"/>
<path d="M255.5 106L259 93.5H327L338 86.5L353 11.5H313L302 21L292.5 66.5H327L324 78H263L275 21L302 0H382L364 86.5L338 106H255.5Z" fill="#082159"/>
<path d="M439 66.5L435.5 78H378L391 21L419 0H494L476.5 78H448.5L464 11.5H429L419 18.5L407.5 66.5H439Z" fill="#082159"/>
<path d="M516.5 78H489L505.5 0H575.5L565.5 40L557 47L565.5 66.5H572L582 24.5H610L597.5 78H547.5L535 50H528L531 36H545L550.5 11.5H531L516.5 78Z" fill="#082159"/>
<path d="M584 11.5L586.5 0H615L612.5 11.5H584Z" fill="#082159"/>
</svg>
