<svg width="64" height="64" viewBox="0 0 64 64" fill="none" xmlns="http://www.w3.org/2000/svg">
<path d="M58 52C58 52.5304 57.7893 53.0391 57.4142 53.4142C57.0391 53.7893 56.5304 54 56 54H8C7.46957 54 6.96086 53.7893 6.58579 53.4142C6.21071 53.0391 6 52.5304 6 52V12C6 11.4696 6.21071 10.9609 6.58579 10.5858C6.96086 10.2107 7.46957 10 8 10C8.53043 10 9.03914 10.2107 9.41421 10.5858C9.78929 10.9609 10 11.4696 10 12V39.1725L22.585 26.585C22.7707 26.399 22.9913 26.2515 23.2341 26.1509C23.4769 26.0502 23.7372 25.9984 24 25.9984C24.2628 25.9984 24.5231 26.0502 24.7659 26.1509C25.0087 26.2515 25.2293 26.399 25.415 26.585L32 33.1725L45.1725 20H40C39.4696 20 38.9609 19.7893 38.5858 19.4142C38.2107 19.0391 38 18.5304 38 18C38 17.4696 38.2107 16.9609 38.5858 16.5858C38.9609 16.2107 39.4696 16 40 16H50C50.5304 16 51.0391 16.2107 51.4142 16.5858C51.7893 16.9609 52 17.4696 52 18V28C52 28.5304 51.7893 29.0391 51.4142 29.4142C51.0391 29.7893 50.5304 30 50 30C49.4696 30 48.9609 29.7893 48.5858 29.4142C48.2107 29.0391 48 28.5304 48 28V22.8275L33.415 37.415C33.2293 37.601 33.0087 37.7485 32.7659 37.8491C32.5231 37.9498 32.2628 38.0016 32 38.0016C31.7372 38.0016 31.4769 37.9498 31.2341 37.8491C30.9913 37.7485 30.7707 37.601 30.585 37.415L24 30.8275L10 44.8275V50H56C56.5304 50 57.0391 50.2107 57.4142 50.5858C57.7893 50.9609 58 51.4696 58 52Z" fill="black"/>
</svg>
