<svg width="64" height="64" viewBox="0 0 64 64" fill="none" xmlns="http://www.w3.org/2000/svg">
<path d="M22 26C22 25.4696 22.2107 24.9609 22.5858 24.5858C22.9609 24.2107 23.4696 24 24 24H40C40.5304 24 41.0391 24.2107 41.4142 24.5858C41.7893 24.9609 42 25.4696 42 26C42 26.5304 41.7893 27.0391 41.4142 27.4142C41.0391 27.7893 40.5304 28 40 28H24C23.4696 28 22.9609 27.7893 22.5858 27.4142C22.2107 27.0391 22 26.5304 22 26ZM24 36H40C40.5304 36 41.0391 35.7893 41.4142 35.4142C41.7893 35.0391 42 34.5304 42 34C42 33.4696 41.7893 32.9609 41.4142 32.5858C41.0391 32.2107 40.5304 32 40 32H24C23.4696 32 22.9609 32.2107 22.5858 32.5858C22.2107 32.9609 22 33.4696 22 34C22 34.5304 22.2107 35.0391 22.5858 35.4142C22.9609 35.7893 23.4696 36 24 36ZM58 14V46C58 47.0609 57.5786 48.0783 56.8284 48.8284C56.0783 49.5786 55.0609 50 54 50H38.8925L35.4725 55.985C35.1226 56.597 34.6171 57.1057 34.0073 57.4595C33.3975 57.8133 32.705 57.9996 32 57.9996C31.295 57.9996 30.6025 57.8133 29.9927 57.4595C29.3829 57.1057 28.8774 56.597 28.5275 55.985L25.1075 50H10C8.93913 50 7.92172 49.5786 7.17157 48.8284C6.42143 48.0783 6 47.0609 6 46V14C6 12.9391 6.42143 11.9217 7.17157 11.1716C7.92172 10.4214 8.93913 10 10 10H54C55.0609 10 56.0783 10.4214 56.8284 11.1716C57.5786 11.9217 58 12.9391 58 14ZM54 14H10V46H26.2675C26.6216 45.9968 26.9702 46.0877 27.2777 46.2634C27.5851 46.4391 27.8405 46.6933 28.0175 47L32.0175 54L36.0175 47C36.1945 46.6933 36.4499 46.4391 36.7573 46.2634C37.0648 46.0877 37.4134 45.9968 37.7675 46H54V14Z" fill="black"/>
</svg>
