<svg width="64" height="64" viewBox="0 0 64 64" fill="none" xmlns="http://www.w3.org/2000/svg">
<g clip-path="url(#clip0_89_1362)">
<path d="M62.485 30.06L55.7225 28.37C54.9544 23.3158 52.5902 18.6396 48.9753 15.0247C45.3604 11.4098 40.6842 9.04556 35.63 8.27749L33.94 1.52749C33.8316 1.09504 33.5818 0.711196 33.2303 0.43693C32.8788 0.162665 32.4458 0.0137024 32 0.0137024C31.5541 0.0137024 31.1211 0.162665 30.7696 0.43693C30.4181 0.711196 30.1683 1.09504 30.06 1.52749L28.37 8.28999C23.3157 9.05805 18.6395 11.4223 15.0246 15.0372C11.4097 18.6521 9.04552 23.3283 8.27746 28.3825L1.52746 30.0725C1.09501 30.1809 0.711165 30.4306 0.4369 30.7821C0.162634 31.1336 0.0136719 31.5667 0.0136719 32.0125C0.0136719 32.4583 0.162634 32.8914 0.4369 33.2429C0.711165 33.5943 1.09501 33.8441 1.52746 33.9525L8.28996 35.6425C9.05802 40.6967 11.4222 45.3729 15.0371 48.9878C18.652 52.6027 23.3282 54.9669 28.3825 55.735L30.0725 62.4975C30.1808 62.9299 30.4306 63.3138 30.7821 63.5881C31.1336 63.8623 31.5666 64.0113 32.0125 64.0113C32.4583 64.0113 32.8913 63.8623 33.2428 63.5881C33.5943 63.3138 33.8441 62.9299 33.9525 62.4975L35.6425 55.735C40.6967 54.9669 45.3729 52.6027 48.9878 48.9878C52.6027 45.3729 54.9669 40.6967 55.735 35.6425L62.4975 33.9525C62.9299 33.8441 63.3138 33.5943 63.588 33.2429C63.8623 32.8914 64.0112 32.4583 64.0112 32.0125C64.0112 31.5667 63.8623 31.1336 63.588 30.7821C63.3138 30.4306 62.9299 30.1809 62.4975 30.0725L62.485 30.06ZM38.6125 35.785L34.8275 32L38.6125 28.215L53.75 32L38.6125 35.785ZM25.3875 35.785L10.25 32L25.3925 28.215L29.1725 32L25.3875 35.785ZM51.4425 27.3L39.65 24.35L36.7 12.5575C40.2768 13.4184 43.5464 15.2507 46.1478 17.8521C48.7493 20.4536 50.5816 23.7231 51.4425 27.3ZM35.785 25.3875L32 29.1725L28.215 25.3875L32 10.25L35.785 25.3875ZM27.3 12.5575L24.35 24.35L12.5575 27.3C13.4184 23.7231 15.2506 20.4536 17.8521 17.8521C20.4535 15.2507 23.7231 13.4184 27.3 12.5575ZM12.55 36.7L24.35 39.65L27.3 51.4425C23.7231 50.5816 20.4535 48.7493 17.8521 46.1479C15.2506 43.5464 13.4184 40.2769 12.5575 36.7H12.55ZM28.2075 38.6125L32 34.8275L35.785 38.6125L32 53.75L28.2075 38.6125ZM36.6925 51.4425L39.6425 39.65L51.435 36.7C50.5747 40.2759 48.7435 43.5448 46.1435 46.1462C43.5434 48.7476 40.2755 50.5804 36.7 51.4425H36.6925Z" fill="black"/>
</g>
<defs>
<clipPath id="clip0_89_1362">
<rect width="64" height="64" fill="white"/>
</clipPath>
</defs>
</svg>
