<svg width="64" height="64" viewBox="0 0 64 64" fill="none" xmlns="http://www.w3.org/2000/svg">
<path d="M48.1246 42.8675C50.6537 40.743 52.6741 38.0783 54.037 35.0696C55.3999 32.0609 56.0705 28.7847 55.9996 25.4825C55.7496 14.055 46.5971 4.6325 35.1896 4.0325C32.2463 3.8723 29.3008 4.30521 26.528 5.30553C23.7553 6.30585 21.2118 7.85317 19.0487 9.85561C16.8856 11.858 15.1469 14.2748 13.936 16.9622C12.7251 19.6497 12.0666 22.5531 11.9996 25.5L6.38708 36.295C6.36458 36.34 6.34208 36.385 6.32208 36.43C5.9197 37.3679 5.89102 38.4241 6.24191 39.3824C6.5928 40.3407 7.29672 41.1287 8.20958 41.585L8.27208 41.6125L13.9996 44.235V52C13.9996 53.0609 14.421 54.0783 15.1711 54.8284C15.9213 55.5786 16.9387 56 17.9996 56H29.9996C30.53 56 31.0387 55.7893 31.4138 55.4142C31.7889 55.0391 31.9996 54.5304 31.9996 54C31.9996 53.4696 31.7889 52.9609 31.4138 52.5858C31.0387 52.2107 30.53 52 29.9996 52H17.9996V42.9525C17.9999 42.5691 17.89 42.1938 17.683 41.8711C17.476 41.5485 17.1806 41.2921 16.8321 41.1325L9.99958 38L15.7671 26.915C15.9174 26.6333 15.9972 26.3193 15.9996 26C15.999 21.9208 17.384 17.9625 19.9275 14.7735C22.4711 11.5845 26.0224 9.35398 29.9996 8.4475V12.345C28.6651 12.8168 27.5405 13.7451 26.8243 14.966C26.1082 16.1868 25.8466 17.6215 26.086 19.0165C26.3253 20.4115 27.0501 21.6769 28.1323 22.5892C29.2144 23.5015 30.5842 24.0019 31.9996 24.0019C33.415 24.0019 34.7848 23.5015 35.8669 22.5892C36.949 21.6769 37.6738 20.4115 37.9132 19.0165C38.1525 17.6215 37.891 16.1868 37.1748 14.966C36.4587 13.7451 35.334 12.8168 33.9996 12.345V8C34.3246 8 34.6496 8 34.9746 8.025C38.5213 8.22816 41.9293 9.47253 44.7725 11.6025C47.6157 13.7324 49.7678 16.6534 50.9596 20H45.9996C45.7062 19.9999 45.4163 20.0643 45.1506 20.1888C44.8849 20.3132 44.6499 20.4946 44.4621 20.72L38.0846 28.375C36.7545 27.8794 35.292 27.8701 33.9557 28.3488C32.6195 28.8275 31.4956 29.7634 30.7828 30.9909C30.07 32.2183 29.8142 33.6583 30.0608 35.0562C30.3073 36.454 31.0402 37.7196 32.1299 38.6292C33.2196 39.5388 34.5959 40.0336 36.0153 40.0263C37.4347 40.019 38.8058 39.51 39.8861 38.5893C40.9664 37.6686 41.6862 36.3955 41.9184 34.9952C42.1505 33.5949 41.88 32.1576 41.1546 30.9375L46.9371 24H51.8846C51.9446 24.52 51.9812 25.045 51.9946 25.575C52.0569 28.4396 51.437 31.2779 50.1859 33.8557C48.9349 36.4334 47.0886 38.6766 44.7996 40.4C44.5175 40.6114 44.2964 40.8937 44.1585 41.2181C44.0206 41.5426 43.971 41.8977 44.0146 42.2475L46.0146 58.2475C46.0754 58.7305 46.3104 59.1747 46.6753 59.4969C47.0403 59.8191 47.5103 59.9971 47.9971 59.9975C48.0806 59.9975 48.1641 59.9925 48.2471 59.9825C48.5078 59.95 48.7595 59.8665 48.9879 59.7368C49.2164 59.607 49.417 59.4335 49.5783 59.2262C49.7397 59.0189 49.8586 58.7818 49.9283 58.5285C49.998 58.2752 50.0171 58.0107 49.9846 57.75L48.1246 42.8675ZM31.9996 20C31.604 20 31.2173 19.8827 30.8884 19.6629C30.5595 19.4432 30.3032 19.1308 30.1518 18.7654C30.0004 18.3999 29.9608 17.9978 30.038 17.6098C30.1152 17.2219 30.3057 16.8655 30.5854 16.5858C30.8651 16.3061 31.2214 16.1156 31.6094 16.0384C31.9974 15.9613 32.3995 16.0009 32.7649 16.1522C33.1304 16.3036 33.4428 16.56 33.6625 16.8889C33.8823 17.2178 33.9996 17.6044 33.9996 18C33.9996 18.5304 33.7889 19.0391 33.4138 19.4142C33.0387 19.7893 32.53 20 31.9996 20ZM35.9996 36C35.604 36 35.2173 35.8827 34.8884 35.6629C34.5595 35.4432 34.3032 35.1308 34.1518 34.7654C34.0004 34.3999 33.9608 33.9978 34.038 33.6098C34.1152 33.2219 34.3057 32.8655 34.5854 32.5858C34.8651 32.3061 35.2214 32.1156 35.6094 32.0384C35.9974 31.9613 36.3995 32.0009 36.7649 32.1522C37.1304 32.3036 37.4428 32.56 37.6625 32.8889C37.8823 33.2178 37.9996 33.6044 37.9996 34C37.9996 34.5304 37.7889 35.0391 37.4138 35.4142C37.0387 35.7893 36.53 36 35.9996 36Z" fill="black"/>
</svg>
