<svg width="344" height="284" viewBox="0 0 344 284" fill="none" xmlns="http://www.w3.org/2000/svg">
<path d="M110 52.5C110 66.4239 104.205 79.7774 93.8909 89.6231C83.5764 99.4688 69.5869 105 55 105C40.4131 105 26.4236 99.4688 16.1091 89.6231C5.79463 79.7775 2.20256e-06 66.4239 0 52.5L55 52.5H110Z" fill="#979BE2"/>
<path d="M110 111.5C110 125.424 104.205 138.777 93.8909 148.623C83.5764 158.469 69.5869 164 55 164C40.4131 164 26.4236 158.469 16.1091 148.623C5.79463 138.777 2.20256e-06 125.424 0 111.5L55 111.5H110Z" fill="#979BE2"/>
<path d="M110 231.5C110 245.424 104.205 258.777 93.8909 268.623C83.5764 278.469 69.5869 284 55 284C40.4131 284 26.4236 278.469 16.1091 268.623C5.79463 258.777 2.20256e-06 245.424 0 231.5L55 231.5H110Z" fill="#979BE2"/>
<rect x="117" y="232" width="110" height="52" fill="#3B4686"/>
<rect x="117" y="172" width="110" height="52" fill="#3B4686"/>
<rect x="117" y="112" width="110" height="52" fill="#3B4686"/>
<path d="M110 171.5C110 185.424 104.205 198.777 93.8909 208.623C83.5764 218.469 69.5869 224 55 224C40.4131 224 26.4236 218.469 16.1091 208.623C5.79463 198.777 2.20256e-06 185.424 0 171.5L55 171.5H110Z" fill="#979BE2"/>
<path d="M286 226H234L286 174V226Z" fill="#979BE2"/>
<path d="M286 284H234L286 232V284Z" fill="#979BE2"/>
<path d="M292 284H344L292 232V284Z" fill="#979BE2"/>
<path d="M292 226H344L292 174V226Z" fill="#979BE2"/>
</svg>
