<svg width="293" height="146.5" viewBox="0 0 293 146.5" fill="none" xmlns="http://www.w3.org/2000/svg">
<path d="M293 146.5C293 107.646 277.565 70.3831 250.091 42.909C222.617 15.4349 185.354 0.000125004 146.5 0.00012207C107.646 0.000119137 70.3829 15.4349 42.9089 42.909C15.4348 70.383 5.86682e-06 107.646 0 146.5L146.5 146.5H293Z" fill="white"/>
<path d="M293 146.5C293 113.585 281.915 81.6281 261.533 55.7825C241.151 29.937 212.658 11.7085 180.649 4.03585C148.641 -3.63682 114.981 -0.306574 85.0958 13.4897C55.2111 27.286 30.8432 50.7443 15.9206 80.0828L146.5 146.5H293Z" fill="#696EB0"/>
<path d="M293 146.5C293 112.986 281.509 80.4859 260.445 54.4197C239.38 28.3534 210.015 10.2973 177.248 3.26328L146.5 146.5H293Z" fill="#3B4686"/>
<path d="M293 146.5C293 127.261 289.211 108.211 281.848 90.437C274.486 72.6628 263.695 56.5128 250.091 42.909L146.5 146.5H293Z" fill="#082159"/>
</svg>